<?xml version="1.0" encoding="UTF-8" standalone="no"?>
<svg width="220px" height="90px" viewBox="0 0 220 90" version="1.1" xmlns="http://www.w3.org/2000/svg" xmlns:xlink="http://www.w3.org/1999/xlink" xmlns:sketch="http://www.bohemiancoding.com/sketch/ns">
    <!-- Generator: Sketch 3.4.4 (17249) - http://www.bohemiancoding.com/sketch -->
    <title>_Assets/resources/graphics/logo/braun</title>
    <desc>Created with Sketch.</desc>
    <defs></defs>
    <g id="Page-1" stroke="none" stroke-width="1" fill="none" fill-rule="evenodd" sketch:type="MSPage">
        <g id="_Assets/resources/graphics/logo/braun" sketch:type="MSArtboardGroup" fill="#FFFFFF">
            <path d="M35.4,26.344 C35.5120006,26.344 35.6159995,26.3120003 35.712,26.248 C35.8080005,26.1839997 35.8959996,26.056001 35.976,25.864 L40.632,12.64 L43.704,12.64 L38.568,27.184 C38.3119987,27.9040036 37.9040028,28.4319983 37.344,28.768 C36.7839972,29.1040017 36.1200038,29.272 35.352,29.272 C34.5839962,29.272 33.9160028,29.0960018 33.348,28.744 C32.7799972,28.3919982 32.3760012,27.8720034 32.136,27.184 L27,12.64 L30.072,12.64 L34.728,25.888 C34.7760002,26.0640009 34.8479995,26.1839997 34.944,26.248 C35.0400005,26.3120003 35.1519994,26.344 35.28,26.344 L35.4,26.344 Z M50.496,15.544 C49.1839934,15.544 48.2040032,15.9759957 47.556,16.84 C46.9079968,17.7040043 46.584,19.0719906 46.584,20.944 C46.584,24.5120178 47.879987,26.296 50.472,26.296 L53.256,26.296 C55.848013,26.296 57.144,24.5120178 57.144,20.944 C57.144,19.0719906 56.8160033,17.7040043 56.16,16.84 C55.5039967,15.9759957 54.5280065,15.544 53.232,15.544 L50.496,15.544 Z M52.488,12.64 C57.4640249,12.64 59.9759998,15.3759726 60.024,20.848 L60.024,20.92 C60.024,26.4240275 57.520025,29.176 52.512,29.176 L51.216,29.176 C46.207975,29.176 43.704,26.4240275 43.704,20.92 L43.704,20.848 C43.7200001,15.3759726 46.231975,12.64 51.24,12.64 L52.488,12.64 Z M78.792,25.24 C78.792,25.8640031 78.6800011,26.4239975 78.456,26.92 C78.2319989,27.4160025 77.9280019,27.8439982 77.544,28.204 C77.1599981,28.5640018 76.7080026,28.839999 76.188,29.032 C75.6679974,29.224001 75.112003,29.32 74.52,29.32 C73.6559957,29.32 72.8880034,29.0920023 72.216,28.636 C71.5439966,28.1799977 71.0720014,27.5440041 70.8,26.728 L67.488,16.552 C67.3919995,16.2159983 67.2680008,15.9560009 67.116,15.772 C66.9639992,15.5879991 66.7520014,15.496 66.48,15.496 C65.6639959,15.496 65.256,15.9759952 65.256,16.936 L65.256,29.176 L62.16,29.176 L62.16,16.648 C62.16,16.039997 62.2679989,15.4840025 62.484,14.98 C62.7000011,14.4759975 62.9999981,14.0480018 63.384,13.696 C63.7680019,13.3439982 64.2199974,13.072001 64.74,12.88 C65.2600026,12.687999 65.823997,12.592 66.432,12.592 C67.2800042,12.592 68.0399966,12.8159978 68.712,13.264 C69.3840034,13.7120022 69.8559986,14.3439959 70.128,15.16 L73.464,25.36 C73.5760006,25.6960017 73.7039993,25.9479992 73.848,26.116 C73.9920007,26.2840008 74.1999986,26.368 74.472,26.368 C75.2880041,26.368 75.696,25.8880048 75.696,24.928 L75.696,12.64 L78.792,12.64 L78.792,25.24 Z M96.648,12.64 C97.5920047,12.64 98.3959967,12.7639988 99.06,13.012 C99.7240033,13.2600012 100.263998,13.6039978 100.68,14.044 C101.096002,14.4840022 101.395999,14.999997 101.58,15.592 C101.764001,16.184003 101.856,16.8239966 101.856,17.512 C101.856,18.104003 101.712001,18.7119969 101.424,19.336 C101.135999,19.9600031 100.672003,20.4639981 100.032,20.848 C100.672003,21.2320019 101.135999,21.7319969 101.424,22.348 C101.712001,22.9640031 101.856,23.6079966 101.856,24.28 C101.856,24.888003 101.764001,25.487997 101.58,26.08 C101.395999,26.672003 101.096002,27.1959977 100.68,27.652 C100.263998,28.1080023 99.7280033,28.4759986 99.072,28.756 C98.4159967,29.0360014 97.6080048,29.176 96.648,29.176 L88.392,29.176 L88.392,26.296 L97.08,26.296 C97.6400028,26.296 98.0959982,26.1040019 98.448,25.72 C98.8000018,25.3359981 98.976,24.840003 98.976,24.232 C98.976,23.9759987 98.9240005,23.7320012 98.82,23.5 C98.7159995,23.2679988 98.5800008,23.0640009 98.412,22.888 C98.2439992,22.7119991 98.0480011,22.5720005 97.824,22.468 C97.5999989,22.3639995 97.3600013,22.312 97.104,22.312 L88.392,22.312 L88.392,19.408 L97.08,19.408 C97.6400028,19.408 98.0959982,19.2200019 98.448,18.844 C98.8000018,18.4679981 98.976,18.0080027 98.976,17.464 C98.976,17.2079987 98.9240005,16.9640012 98.82,16.732 C98.7159995,16.4999988 98.5800008,16.2960009 98.412,16.12 C98.2439992,15.9439991 98.0480011,15.8040005 97.824,15.7 C97.5999989,15.5959995 97.3600013,15.544 97.104,15.544 L88.392,15.544 L88.392,12.64 L96.648,12.64 Z M106.872,19.504 L112.656,19.504 C113.184003,19.504 113.631998,19.308002 114,18.916 C114.368002,18.523998 114.552,18.0560027 114.552,17.512 C114.552,17.2559987 114.500001,17.0080012 114.396,16.768 C114.291999,16.5279988 114.156001,16.3200009 113.988,16.144 C113.819999,15.9679991 113.624001,15.8240006 113.4,15.712 C113.175999,15.5999994 112.936001,15.544 112.68,15.544 L106.872,15.544 L106.872,19.504 Z M112.224,12.64 C113.136005,12.64 113.919997,12.7679987 114.576,13.024 C115.232003,13.2800013 115.771998,13.6319978 116.196,14.08 C116.620002,14.5280022 116.931999,15.0439971 117.132,15.628 C117.332001,16.2120029 117.432,16.8399966 117.432,17.512 C117.432,18.0880029 117.340001,18.6639971 117.156,19.24 C116.971999,19.8160029 116.672002,20.3319977 116.256,20.788 C115.839998,21.2440023 115.300003,21.6119986 114.636,21.892 C113.971997,22.1720014 113.168005,22.312 112.224,22.312 L110.88,22.312 L117.552,26.056 L117.552,29.512 L106.872,23.008 L106.872,29.176 L103.968,29.176 L103.968,12.64 L112.224,12.64 Z M127.2,15.544 C126.959999,15.544 126.776001,15.7039984 126.648,16.024 L123.816,23.92 L130.68,23.92 L127.896,16.048 C127.816,15.855999 127.728,15.7240004 127.632,15.652 C127.536,15.5799996 127.432001,15.544 127.32,15.544 L127.2,15.544 Z M122.832,26.8 L121.992,29.176 L118.92,29.176 L124.056,14.752 C124.312001,14.0319964 124.719997,13.4960018 125.28,13.144 C125.840003,12.7919982 126.503996,12.616 127.272,12.616 C128.040004,12.616 128.703997,12.7919982 129.264,13.144 C129.824003,13.4960018 130.231999,14.0319964 130.488,14.752 L135.624,29.176 L132.552,29.176 L131.688,26.8 L122.832,26.8 Z M149.784,22.912 C149.784,23.8560047 149.640001,24.7119962 149.352,25.48 C149.063999,26.2480038 148.632003,26.9039973 148.056,27.448 C147.479997,27.9920027 146.756004,28.4159985 145.884,28.72 C145.011996,29.0240015 144.000006,29.176 142.848,29.176 C141.711994,29.176 140.712004,29.0240015 139.848,28.72 C138.983996,28.4159985 138.256003,27.9880028 137.664,27.436 C137.071997,26.8839972 136.624002,26.2240038 136.32,25.456 C136.015998,24.6879962 135.864,23.8480046 135.864,22.936 L135.864,12.64 L138.768,12.64 L138.768,22.864 C138.768,23.872005 139.131996,24.6959968 139.86,25.336 C140.588004,25.9760032 141.599994,26.296 142.896,26.296 L142.968,26.296 C144.264006,26.296 145.239997,25.9760032 145.896,25.336 C146.552003,24.6959968 146.88,23.872005 146.88,22.864 L146.88,12.64 L149.784,12.64 L149.784,22.912 Z M168.792,25.24 C168.792,25.8640031 168.680001,26.4239975 168.456,26.92 C168.231999,27.4160025 167.928002,27.8439982 167.544,28.204 C167.159998,28.5640018 166.708003,28.839999 166.188,29.032 C165.667997,29.224001 165.112003,29.32 164.52,29.32 C163.655996,29.32 162.888003,29.0920023 162.216,28.636 C161.543997,28.1799977 161.072001,27.5440041 160.8,26.728 L157.488,16.552 C157.392,16.2159983 157.268001,15.9560009 157.116,15.772 C156.963999,15.5879991 156.752001,15.496 156.48,15.496 C155.663996,15.496 155.256,15.9759952 155.256,16.936 L155.256,29.176 L152.16,29.176 L152.16,16.648 C152.16,16.039997 152.267999,15.4840025 152.484,14.98 C152.700001,14.4759975 152.999998,14.0480018 153.384,13.696 C153.768002,13.3439982 154.219997,13.072001 154.74,12.88 C155.260003,12.687999 155.823997,12.592 156.432,12.592 C157.280004,12.592 158.039997,12.8159978 158.712,13.264 C159.384003,13.7120022 159.855999,14.3439959 160.128,15.16 L163.464,25.36 C163.576001,25.6960017 163.703999,25.9479992 163.848,26.116 C163.992001,26.2840008 164.199999,26.368 164.472,26.368 C165.288004,26.368 165.696,25.8880048 165.696,24.928 L165.696,12.64 L168.792,12.64 L168.792,25.24 Z M175.128,13.312 C175.128,13.8400026 175.048001,14.3319977 174.888,14.788 C174.727999,15.2440023 174.496002,15.6399983 174.192,15.976 C173.887998,16.3120017 173.524002,16.575999 173.1,16.768 C172.675998,16.960001 172.200003,17.056 171.672,17.056 L170.76,17.056 L170.76,14.224 C171.624004,13.9839988 172.056,13.4400042 172.056,12.592 L172.056,10 L175.128,10 L175.128,13.312 Z M191.448,24.352 C191.448,25.952008 190.988005,27.155996 190.068,27.964 C189.147995,28.772004 187.864008,29.176 186.216,29.176 L177.72,29.176 L177.72,26.296 L186.768,26.296 C187.280003,26.296 187.703998,26.100002 188.04,25.708 C188.376002,25.315998 188.544,24.8400028 188.544,24.28 C188.544,23.7519974 188.376002,23.292002 188.04,22.9 C187.703998,22.507998 187.280003,22.312 186.768,22.312 L182.112,22.312 C181.151995,22.312 180.340003,22.1680014 179.676,21.88 C179.011997,21.5919986 178.476002,21.2160023 178.068,20.752 C177.659998,20.2879977 177.364001,19.7720028 177.18,19.204 C176.995999,18.6359972 176.904,18.0720028 176.904,17.512 C176.904,16.8399966 176.999999,16.2120029 177.192,15.628 C177.384001,15.0439971 177.691998,14.5280022 178.116,14.08 C178.540002,13.6319978 179.079997,13.2800013 179.736,13.024 C180.392003,12.7679987 181.183995,12.64 182.112,12.64 L190.368,12.64 L190.368,15.544 L181.656,15.544 C181.399999,15.544 181.160001,15.5959995 180.936,15.7 C180.711999,15.8040005 180.516001,15.9439991 180.348,16.12 C180.179999,16.2960009 180.044001,16.4999988 179.94,16.732 C179.835999,16.9640012 179.784,17.2079987 179.784,17.464 C179.784,18.0080027 179.967998,18.4679981 180.336,18.844 C180.704002,19.2200019 181.151997,19.408 181.68,19.408 L186.264,19.408 C187.864008,19.408 189.127995,19.811996 190.056,20.62 C190.984005,21.428004 191.448,22.631992 191.448,24.232 L191.448,24.352 Z M40.848,52.912 C38.2239869,52.912 36.2640065,53.7759914 34.968,55.504 C33.6719935,57.2320086 33.024,59.9679813 33.024,63.712 C33.024,70.8480357 35.6159741,74.416 40.8,74.416 L46.368,74.416 C51.5520259,74.416 54.144,70.8480357 54.144,63.712 C54.144,59.9679813 53.4880066,57.2320086 52.176,55.504 C50.8639934,53.7759914 48.912013,52.912 46.32,52.912 L40.848,52.912 Z M44.832,47.104 C54.7840498,47.104 59.8079995,52.5759453 59.904,63.52 L59.904,63.664 C59.904,74.672055 54.8960501,80.176 44.88,80.176 L42.288,80.176 C32.2719499,80.176 27.264,74.672055 27.264,63.664 L27.264,63.52 C27.2960002,52.5759453 32.3199499,47.104 42.336,47.104 L44.832,47.104 Z M89.424,52.912 L78.624,52.912 C76.0959874,52.912 74.0560078,53.5679934 72.504,54.88 C70.9519922,56.1920066 70.1120006,58.1119874 69.984,60.64 L89.424,60.64 L89.424,66.448 L69.984,66.448 L69.984,80.176 L64.176,80.176 L64.176,61.408 C64.176,59.199989 64.479997,57.2160088 65.088,55.456 C65.696003,53.6959912 66.6159938,52.2000062 67.848,50.968 C69.0800062,49.7359938 70.6079909,48.7840034 72.432,48.112 C74.2560091,47.4399966 76.3839878,47.104 78.816,47.104 L89.424,47.104 L89.424,52.912 Z M118.848,52.912 L108.048,52.912 C105.519987,52.912 103.480008,53.5679934 101.928,54.88 C100.375992,56.1920066 99.5360006,58.1119874 99.408,60.64 L118.848,60.64 L118.848,66.448 L99.408,66.448 L99.408,80.176 L93.6,80.176 L93.6,61.408 C93.6,59.199989 93.903997,57.2160088 94.512,55.456 C95.120003,53.6959912 96.0399938,52.2000062 97.272,50.968 C98.5040062,49.7359938 100.031991,48.7840034 101.856,48.112 C103.680009,47.4399966 105.807988,47.104 108.24,47.104 L118.848,47.104 L118.848,52.912 Z M123.024,47.104 L128.832,47.104 L128.832,80.176 L123.024,80.176 L123.024,47.104 Z M148.128,80.176 C138.11195,80.176 133.104,74.672055 133.104,63.664 L133.104,63.52 C133.136,52.5759453 138.15995,47.104 148.176,47.104 L160.176,47.104 L160.176,52.912 L146.688,52.912 C144.063987,52.912 142.104006,53.7759914 140.808,55.504 C139.511994,57.2320086 138.864,59.9679813 138.864,63.712 C138.864,70.8480357 141.455974,74.416 146.64,74.416 L160.128,74.416 L160.128,80.176 L148.128,80.176 Z M191.136,52.912 L173.712,52.912 C173.199997,52.912 172.720002,53.015999 172.272,53.224 C171.823998,53.432001 171.432002,53.7119982 171.096,54.064 C170.759998,54.4160018 170.488001,54.8239977 170.28,55.288 C170.071999,55.7520023 169.968,56.2399974 169.968,56.752 C169.968,57.8400054 170.319996,58.7599962 171.024,59.512 C171.728004,60.2640038 172.639994,60.64 173.76,60.64 L191.136,60.64 L191.136,66.448 L173.712,66.448 C173.199997,66.448 172.720002,66.551999 172.272,66.76 C171.823998,66.968001 171.432002,67.2479982 171.096,67.6 C170.759998,67.9520018 170.488001,68.3599977 170.28,68.824 C170.071999,69.2880023 169.968,69.7759974 169.968,70.288 C169.968,71.5040061 170.319996,72.4959962 171.024,73.264 C171.728004,74.0320038 172.639994,74.416 173.76,74.416 L191.136,74.416 L191.136,80.176 L174.624,80.176 C172.70399,80.176 171.080007,79.8960028 169.752,79.336 C168.423993,78.7759972 167.352004,78.0320046 166.536,77.104 C165.719996,76.1759954 165.128002,75.1280058 164.76,73.96 C164.391998,72.7919942 164.208,71.6000061 164.208,70.384 C164.208,69.0399933 164.479997,67.7520062 165.024,66.52 C165.568003,65.2879938 166.479994,64.2880038 167.76,63.52 C166.479994,62.7519962 165.568003,61.7440062 165.024,60.496 C164.479997,59.2479938 164.208,58.0320059 164.208,56.848 C164.208,55.439993 164.415998,54.136006 164.832,52.936 C165.248002,51.735994 165.879996,50.7040043 166.728,49.84 C167.576004,48.9759957 168.655993,48.3040024 169.968,47.824 C171.280007,47.3439976 172.831991,47.104 174.624,47.104 L191.136,47.104 L191.136,52.912 Z" sketch:type="MSShapeGroup"></path>
        </g>
    </g>
</svg>