<?xml version="1.0" encoding="UTF-8" standalone="no"?>
<!-- Created with Inkscape (http://www.inkscape.org/) -->

<svg
   xmlns:dc="http://purl.org/dc/elements/1.1/"
   xmlns:cc="http://creativecommons.org/ns#"
   xmlns:rdf="http://www.w3.org/1999/02/22-rdf-syntax-ns#"
   xmlns:svg="http://www.w3.org/2000/svg"
   xmlns="http://www.w3.org/2000/svg"
   xmlns:sodipodi="http://sodipodi.sourceforge.net/DTD/sodipodi-0.dtd"
   xmlns:inkscape="http://www.inkscape.org/namespaces/inkscape"
   width="159.59431mm"
   height="58.797356mm"
   viewBox="0 0 565.49166 208.33709"
   id="svg2"
   version="1.1"
   inkscape:version="0.91 r13725"
   sodipodi:docname="puzzlehunt-logo.svg">
  <defs
     id="defs4" />
  <sodipodi:namedview
     id="base"
     pagecolor="#939393"
     bordercolor="#666666"
     borderopacity="1.0"
     inkscape:pageopacity="0"
     inkscape:pageshadow="2"
     inkscape:zoom="0.35"
     inkscape:cx="-169.78625"
     inkscape:cy="-7.0803762"
     inkscape:document-units="px"
     inkscape:current-layer="layer1"
     showgrid="false"
     fit-margin-top="5"
     fit-margin-left="5"
     fit-margin-right="5"
     fit-margin-bottom="5"
     inkscape:window-width="1280"
     inkscape:window-height="751"
     inkscape:window-x="0"
     inkscape:window-y="1"
     inkscape:window-maximized="1" />
  <metadata
     id="metadata7">
    <rdf:RDF>
      <cc:Work
         rdf:about="">
        <dc:format>image/svg+xml</dc:format>
        <dc:type
           rdf:resource="http://purl.org/dc/dcmitype/StillImage" />
        <dc:title></dc:title>
      </cc:Work>
    </rdf:RDF>
  </metadata>
  <g
     inkscape:label="Layer 1"
     inkscape:groupmode="layer"
     id="layer1"
     transform="translate(-80.500536,-316.94475)">
    <g
       style="font-style:normal;font-weight:normal;font-size:90px;line-height:125%;font-family:sans-serif;letter-spacing:0px;word-spacing:0px;fill:#000000;fill-opacity:1;stroke:none;stroke-width:1px;stroke-linecap:butt;stroke-linejoin:miter;stroke-opacity:1"
       id="text4136">
      <path
         d="m 153.54422,336.02359 q -1.71387,5.88867 -4.70215,15.33691 -3.73535,11.86524 -7.03125,21.70899 -3.7793,11.25 -4.70215,12.6123 -1.53808,2.19727 -4.6582,3.42774 -3.07617,1.23047 -6.54785,1.23047 -3.55957,0 -6.5918,-1.18653 -2.98828,-1.18652 -4.57031,-3.47168 -0.9668,-1.27441 -4.74609,-12.56836 -2.28516,-6.81152 -6.94336,-21.70898 -3.867192,-12.34863 -4.833988,-15.38086 l 12.744138,0 13.97461,41.7041 q 0.13184,0.65918 0.92285,0.65918 0.79102,0 1.14258,-0.65918 l 13.66699,-41.7041 12.87598,0 z"
         style="font-style:normal;font-variant:normal;font-weight:normal;font-stretch:normal;font-family:Nasa;-inkscape-font-specification:Nasa;text-align:center;text-anchor:middle;fill:#ffffff"
         id="path4226" />
      <path
         d="m 187.68973,389.32925 -17.53418,0 q -9.44824,0 -14.89746,-8.21777 -4.92188,-7.38281 -4.92188,-18.19336 0,-10.98633 5.00977,-18.7207 5.53711,-8.56934 14.80957,-8.56934 l 17.53418,0 q 9.27246,0 14.80957,8.56934 5.00976,7.73437 5.00976,18.76465 0,10.81054 -4.87793,18.14941 -5.44921,8.21777 -14.9414,8.21777 z m -1.97754,-11.6455 q 4.21875,0 6.76758,-4.92188 2.3291,-4.48242 2.3291,-10.81055 0,-6.15234 -2.24121,-10.32714 -2.50489,-4.65821 -6.85547,-4.65821 l -13.5791,0 q -4.35059,0 -6.85547,4.65821 -2.24121,4.1748 -2.24121,10.32714 0,6.37207 2.28515,10.81055 2.54883,4.92188 6.81153,4.92188 l 13.5791,0 z"
         style="font-style:normal;font-variant:normal;font-weight:normal;font-stretch:normal;font-family:Nasa;-inkscape-font-specification:Nasa;text-align:center;text-anchor:middle;fill:#ffffff"
         id="path4228" />
      <path
         d="m 264.90164,378.51871 q 0,5.09765 -4.21875,8.4375 -3.95508,3.12011 -9.44824,3.12011 -4.74609,0 -8.52539,-2.50488 -4.21875,-2.8125 -5.97656,-8.04199 -0.35157,-1.05469 -3.20801,-11.42578 -2.59277,-9.4043 -4.52637,-14.72168 -2.68066,-7.25098 -4.35058,-7.03125 -1.09864,0.26367 -1.53809,0.92285 -0.43945,0.61523 -0.43945,1.75781 l 0,40.29785 -11.86524,0 0,-43.0664 q 0,-5.88867 4.43848,-8.96485 3.82324,-2.63671 9.7998,-2.63671 7.99805,0 12.7002,8.04199 3.16406,5.36133 6.02051,17.3584 3.16406,13.18359 4.61425,16.34765 0.79102,1.71387 2.417,1.71387 0.8789,0 1.49414,-0.70313 0.65918,-0.70312 0.65918,-1.93359 l 0,-40.25391 11.95312,0 0,43.28614 z"
         style="font-style:normal;font-variant:normal;font-weight:normal;font-stretch:normal;font-family:Nasa;-inkscape-font-specification:Nasa;text-align:center;text-anchor:middle;fill:#ffffff"
         id="path4230" />
      <path
         d="m 338.64188,362.52261 q 1.62597,2.10938 2.41699,4.7461 0.83496,2.63672 0.83496,5.625 0,6.59179 -3.64746,11.25 -4.04297,5.18554 -10.89844,5.18554 l -30.54199,0 0,-11.20605 28.56445,0 q 1.97754,0 3.16406,-1.53809 1.05469,-1.3623 1.05469,-3.38379 0,-1.97753 -1.01074,-3.25195 -1.14258,-1.45019 -3.20801,-1.45019 l -28.56445,0 0,-11.95313 28.56445,0 q 2.02149,0 3.12012,-1.3623 1.09863,-1.40625 1.09863,-3.2959 0,-2.02149 -1.05469,-3.38379 -1.18652,-1.53809 -3.16406,-1.53809 l -28.56445,0 0,-11.33789 30.54199,0 q 6.81152,0 10.94238,5.27344 3.73536,4.79004 3.73536,11.42578 0,2.94434 -0.87891,5.58106 -0.83496,2.63671 -2.50488,4.61425 z"
         style="font-style:normal;font-variant:normal;font-weight:normal;font-stretch:normal;font-family:Nasa;-inkscape-font-specification:Nasa;text-align:center;text-anchor:middle;fill:#ffffff"
         id="path4232" />
      <path
         d="m 392.38699,389.32925 -33.79394,-13.35937 0,13.35937 -11.68946,0 0,-17.79785 q 0,-6.41601 3.16407,-10.37109 3.6914,-4.61426 10.85449,-4.61426 l 14.5459,0 q 2.02148,0 3.12012,-1.3623 1.09863,-1.40625 1.09863,-3.2959 0,-2.02149 -1.05469,-3.38379 -1.18652,-1.53809 -3.16406,-1.53809 l -28.56446,0 0,-11.33789 30.542,0 q 6.85547,0 10.85449,5.05371 3.60351,4.57032 3.60351,11.20606 0,6.59179 -3.60351,11.16211 -3.99902,5.09765 -10.85449,5.09765 l -7.38282,0 22.32422,8.52539 0,12.65625 z"
         style="font-style:normal;font-variant:normal;font-weight:normal;font-stretch:normal;font-family:Nasa;-inkscape-font-specification:Nasa;text-align:center;text-anchor:middle;fill:#ffffff"
         id="path4234" />
      <path
         d="m 450.13113,389.32925 -12.70019,0 -14.01856,-41.30859 q -0.13183,-0.65918 -0.92285,-0.65918 -0.74707,0 -1.09863,0.65918 l -13.71094,41.30859 -12.87597,0 q 1.09863,-3.82324 4.70214,-15.20507 3.64746,-11.38184 7.0752,-21.53321 3.82324,-11.29394 4.6582,-12.56836 1.58203,-2.24121 4.61426,-3.42773 3.03223,-1.18652 6.5918,-1.18652 3.55957,0 6.54785,1.18652 3.03223,1.18652 4.61426,3.42773 0.96679,1.31836 4.74609,12.48047 2.3291,6.85547 6.94336,21.53321 2.8125,8.92089 4.83398,15.29296 z"
         style="font-style:normal;font-variant:normal;font-weight:normal;font-stretch:normal;font-family:Nasa;-inkscape-font-specification:Nasa;text-align:center;text-anchor:middle;fill:#ffffff"
         id="path4236" />
      <path
         d="m 493.98856,370.08121 q 0,9.3164 -7.20704,14.85351 -6.5039,5.00977 -15.9082,5.00977 -9.14062,0 -15.38086,-4.92188 -6.9873,-5.49316 -6.9873,-14.9414 l 0,-34.45313 11.64551,0 0,32.51953 q 0,4.21875 3.60351,6.76758 3.2959,2.3291 7.9541,2.3291 4.48242,0 7.5586,-2.24121 3.42773,-2.50488 3.42773,-6.85547 l 0,-32.51953 11.29395,0 0,34.45313 z"
         style="font-style:normal;font-variant:normal;font-weight:normal;font-stretch:normal;font-family:Nasa;-inkscape-font-specification:Nasa;text-align:center;text-anchor:middle;fill:#ffffff"
         id="path4238" />
      <path
         d="m 553.18289,378.51871 q 0,5.09765 -4.21875,8.4375 -3.95508,3.12011 -9.44824,3.12011 -4.74609,0 -8.52539,-2.50488 -4.21875,-2.8125 -5.97656,-8.04199 -0.35157,-1.05469 -3.20801,-11.42578 -2.59277,-9.4043 -4.52637,-14.72168 -2.68066,-7.25098 -4.35058,-7.03125 -1.09864,0.26367 -1.53809,0.92285 -0.43945,0.61523 -0.43945,1.75781 l 0,40.29785 -11.86524,0 0,-43.0664 q 0,-5.88867 4.43848,-8.96485 3.82324,-2.63671 9.7998,-2.63671 7.99805,0 12.7002,8.04199 3.16406,5.36133 6.02051,17.3584 3.16406,13.18359 4.61425,16.34765 0.79102,1.71387 2.417,1.71387 0.8789,0 1.49414,-0.70313 0.65918,-0.70312 0.65918,-1.93359 l 0,-40.25391 11.95312,0 0,43.28614 z"
         style="font-style:normal;font-variant:normal;font-weight:normal;font-stretch:normal;font-family:Nasa;-inkscape-font-specification:Nasa;text-align:center;text-anchor:middle;fill:#ffffff"
         id="path4240" />
      <path
         d="m 574.10086,347.71304 q 0,5.40528 -3.42773,9.09668 -3.42774,3.69141 -8.52539,3.69141 l -3.99903,0 0,-12.78809 q 2.02149,0 2.98828,-1.05468 1.01075,-1.09864 1.01075,-2.94434 l 0,-7.42676 11.95312,0 0,11.42578 z"
         style="font-style:normal;font-variant:normal;font-weight:normal;font-stretch:normal;font-family:Nasa;-inkscape-font-specification:Nasa;text-align:center;text-anchor:middle;fill:#ffffff"
         id="path4242" />
      <path
         d="m 625.34109,346.96597 -28.56445,0 q -1.93359,0 -3.07617,1.49414 -1.09863,1.4502 -1.09863,3.42774 0,1.93359 1.05468,3.2959 1.09864,1.3623 3.12012,1.3623 l 16.83106,0 q 6.81152,0 10.7666,5.09766 3.55957,4.57031 3.55957,11.29394 0,6.67969 -3.55957,11.29395 -3.95508,5.09765 -10.7666,5.09765 l -30.62989,0 0,-11.42578 28.69629,0 q 1.84571,0 2.90039,-1.49414 1.05469,-1.53808 1.05469,-3.51562 0,-1.97754 -1.01074,-3.33985 -1.01074,-1.40625 -2.94434,-1.40625 l -16.875,0 q -6.85547,0 -10.85449,-5.05371 -3.60352,-4.52636 -3.60352,-11.20605 0,-6.5918 3.60352,-11.16211 4.04297,-5.09766 10.85449,-5.09766 l 30.54199,0 0,11.33789 z"
         style="font-style:normal;font-variant:normal;font-weight:normal;font-stretch:normal;font-family:Nasa;-inkscape-font-specification:Nasa;text-align:center;text-anchor:middle;fill:#ffffff"
         id="path4244" />
      <path
         d="m 131.845,484.41833 -12.06055,0 q -4.63867,0 -6.6333,3.10791 -1.34521,2.13379 -1.34521,5.33447 0,1.15967 0,1.3916 0.0464,0.23193 0.13916,0.46387 l 0,12.06055 -12.338868,0 q 0,-1.39161 0,-3.8501 0,-2.4585 0,-6.44776 0,-3.98925 0,-8.48877 0,-6.77246 3.339848,-10.94726 3.89648,-4.87061 11.45751,-4.87061 l 15.35401,0 q 2.13379,0 3.29346,-1.43799 1.15966,-1.48437 1.15966,-3.479 0,-2.13379 -1.11328,-3.57178 -1.25244,-1.62353 -3.33984,-1.62353 l -30.151368,0 0,-11.96777 32.238768,0 q 7.23633,0 11.45752,5.33447 3.80371,4.82422 3.80371,11.82861 0,6.95801 -3.80371,11.78223 -4.22119,5.38086 -11.45752,5.38086 z"
         style="font-style:normal;font-variant:normal;font-weight:normal;font-stretch:normal;font-size:95px;font-family:Nasa;-inkscape-font-specification:Nasa;text-align:center;text-anchor:middle;fill:#ffffff"
         id="path4246" />
      <path
         d="m 199.9407,486.45934 q 0,9.83399 -7.60742,15.67871 -6.86523,5.28809 -16.79199,5.28809 -9.64844,0 -16.23535,-5.19531 -7.37549,-5.79834 -7.37549,-15.77149 l 0,-36.36718 12.29248,0 0,34.32617 q 0,4.45312 3.80371,7.14355 3.47901,2.4585 8.396,2.4585 4.73144,0 7.97851,-2.36572 3.61817,-2.64405 3.61817,-7.23633 l 0,-34.32617 11.92138,0 0,36.36718 z"
         style="font-style:normal;font-variant:normal;font-weight:normal;font-stretch:normal;font-size:95px;font-family:Nasa;-inkscape-font-specification:Nasa;text-align:center;text-anchor:middle;fill:#ffffff"
         id="path4248" />
      <path
         d="m 254.95535,506.77673 -38.08349,0 q -5.38086,0 -8.81348,-4.31397 -3.20068,-4.03564 -3.20068,-9.69482 0,-5.00977 2.59765,-8.99903 2.87598,-4.40674 8.30323,-6.2622 l 25.4663,-10.20508 q 1.34522,0 2.13379,-0.88135 0.83496,-0.88135 0.74219,-1.66992 -0.41748,-1.48438 -0.55664,-1.66992 -0.32471,-0.41748 -1.34521,-0.41748 l -36.18165,0 0,-12.5708 39.10401,0 q 6.07666,0 9.64844,3.98925 3.24707,3.61817 3.24707,9.0918 0,4.96338 -2.82959,9.0918 -3.10791,4.49951 -8.53516,6.30859 l -27.55371,11.1792 q -0.97412,0 -1.48438,0.55664 -0.46386,0.51025 -0.46386,1.29883 0,1.02051 0.74218,1.80908 0.74219,0.78857 2.13379,0.78857 l 34.9292,0 0,12.57081 z"
         style="font-style:normal;font-variant:normal;font-weight:normal;font-stretch:normal;font-size:95px;font-family:Nasa;-inkscape-font-specification:Nasa;text-align:center;text-anchor:middle;fill:#ffffff"
         id="path4250" />
      <path
         d="m 311.17606,506.77673 -38.0835,0 q -5.38086,0 -8.81348,-4.31397 -3.20068,-4.03564 -3.20068,-9.69482 0,-5.00977 2.59766,-8.99903 2.87597,-4.40674 8.30322,-6.2622 l 25.46631,-10.20508 q 1.34521,0 2.13379,-0.88135 0.83496,-0.88135 0.74218,-1.66992 -0.41748,-1.48438 -0.55664,-1.66992 -0.3247,-0.41748 -1.34521,-0.41748 l -36.18164,0 0,-12.5708 39.104,0 q 6.07666,0 9.64844,3.98925 3.24707,3.61817 3.24707,9.0918 0,4.96338 -2.82959,9.0918 -3.10791,4.49951 -8.53516,6.30859 l -27.55371,11.1792 q -0.97412,0 -1.48437,0.55664 -0.46387,0.51025 -0.46387,1.29883 0,1.02051 0.74219,1.80908 0.74219,0.78857 2.13379,0.78857 l 34.9292,0 0,12.57081 z"
         style="font-style:normal;font-variant:normal;font-weight:normal;font-stretch:normal;font-size:95px;font-family:Nasa;-inkscape-font-specification:Nasa;text-align:center;text-anchor:middle;fill:#ffffff"
         id="path4252" />
      <path
         d="m 365.4949,506.77673 -22.59033,0 q -10.71533,0 -16.97754,-5.38086 -4.91699,-4.2212 -6.95801,-11.50391 -1.34521,-4.77783 -1.34521,-10.39063 0,-1.29882 0,-1.80908 0.0464,-0.55664 0.13916,-0.97412 l 0,-26.62597 12.52441,0 0,26.62597 q 0,7.18994 3.01514,12.10694 3.479,5.65917 9.60205,5.65917 l 22.59033,0 0,12.29249 z"
         style="font-style:normal;font-variant:normal;font-weight:normal;font-stretch:normal;font-size:95px;font-family:Nasa;-inkscape-font-specification:Nasa;text-align:center;text-anchor:middle;fill:#ffffff"
         id="path4254" />
      <path
         d="m 418.56131,506.77673 -32.23877,0 q -7.23633,0 -11.45752,-5.42725 -3.80371,-4.87061 -3.80371,-11.96777 0,-6.40137 3.20068,-11.08643 -3.20068,-4.68506 -3.20068,-10.99365 0,-6.95801 3.80371,-11.82862 4.22119,-5.38085 11.45752,-5.38085 l 32.23877,0 0,11.96777 -30.15137,0 q -2.04101,0 -3.24707,1.57715 -1.15967,1.53076 -1.15967,3.61816 0,2.04102 1.11329,3.479 1.15966,1.43799 3.29345,1.43799 l 30.15137,0 0,11.92139 0,0.32471 -31.86768,0 q -1.25244,0.55664 -1.99462,1.94824 -0.69581,1.3916 -0.69581,3.06152 0,2.0874 1.11329,3.61817 1.15966,1.53076 3.29345,1.53076 l 30.15137,0 0,12.19971 z"
         style="font-style:normal;font-variant:normal;font-weight:normal;font-stretch:normal;font-size:95px;font-family:Nasa;-inkscape-font-specification:Nasa;text-align:center;text-anchor:middle;fill:#ffffff"
         id="path4256" />
      <path
         d="m 471.62772,506.77673 -12.5708,0 0,-22.3584 -22.63672,0 0,22.3584 -12.52442,0 0,-56.68457 12.52442,0 0,22.08007 22.63672,0 0,-22.08007 12.5708,0 0,56.68457 z m 0,0 0,0 z m -47.73194,0 0,0 z"
         style="font-style:normal;font-variant:normal;font-weight:normal;font-stretch:normal;font-size:95px;font-family:Nasa;-inkscape-font-specification:Nasa;text-align:center;text-anchor:middle;fill:#ffffff"
         id="path4258" />
      <path
         d="m 524.46219,486.45934 q 0,9.83399 -7.60742,15.67871 -6.86524,5.28809 -16.792,5.28809 -9.64843,0 -16.23535,-5.19531 -7.37549,-5.79834 -7.37549,-15.77149 l 0,-36.36718 12.29249,0 0,34.32617 q 0,4.45312 3.80371,7.14355 3.479,2.4585 8.39599,2.4585 4.73145,0 7.97852,-2.36572 3.61816,-2.64405 3.61816,-7.23633 l 0,-34.32617 11.92139,0 0,36.36718 z"
         style="font-style:normal;font-variant:normal;font-weight:normal;font-stretch:normal;font-size:95px;font-family:Nasa;-inkscape-font-specification:Nasa;text-align:center;text-anchor:middle;fill:#ffffff"
         id="path4260" />
      <path
         d="m 586.9451,495.36559 q 0,5.38086 -4.45313,8.90625 -4.1748,3.29346 -9.97314,3.29346 -5.00977,0 -8.99902,-2.64404 -4.45313,-2.96875 -6.3086,-8.48877 -0.37109,-1.11328 -3.38623,-12.06055 -2.73681,-9.92676 -4.77783,-15.53955 -2.82959,-7.65381 -4.59229,-7.42188 -1.15966,0.27832 -1.62353,0.97413 -0.46387,0.64941 -0.46387,1.85546 l 0,42.53663 -12.52441,0 0,-45.45899 q 0,-6.21582 4.68506,-9.46289 4.03564,-2.7832 10.34423,-2.7832 8.44239,0 13.40577,8.48877 3.33984,5.65918 6.35498,18.32275 3.33984,13.91602 4.8706,17.25586 0.83496,1.80908 2.55127,1.80908 0.92774,0 1.57715,-0.74219 0.6958,-0.74218 0.6958,-2.04101 l 0,-42.49024 12.61719,0 0,45.69092 z"
         style="font-style:normal;font-variant:normal;font-weight:normal;font-stretch:normal;font-size:95px;font-family:Nasa;-inkscape-font-specification:Nasa;text-align:center;text-anchor:middle;fill:#ffffff"
         id="path4262" />
      <path
         d="m 628.27567,462.05993 -12.80274,0 0,44.7168 -12.38525,0 0,-44.7168 -12.75635,0 0,-11.96777 37.94434,0 0,11.96777 z"
         style="font-style:normal;font-variant:normal;font-weight:normal;font-stretch:normal;font-size:95px;font-family:Nasa;-inkscape-font-specification:Nasa;text-align:center;text-anchor:middle;fill:#ffffff"
         id="path4264" />
    </g>
  </g>
</svg>
