<?xml version="1.0" encoding="UTF-8" standalone="no"?>
<svg width="220px" height="90px" viewBox="0 0 220 90" version="1.1" xmlns="http://www.w3.org/2000/svg" xmlns:xlink="http://www.w3.org/1999/xlink" xmlns:sketch="http://www.bohemiancoding.com/sketch/ns">
    <!-- Generator: Sketch 3.4.4 (17249) - http://www.bohemiancoding.com/sketch -->
    <title>_Assets/resources/graphics/logo/spy</title>
    <desc>Created with Sketch.</desc>
    <defs></defs>
    <g id="Page-1" stroke="none" stroke-width="1" fill="none" fill-rule="evenodd" sketch:type="MSPage">
        <g id="_Assets/resources/graphics/logo/spy" sketch:type="MSArtboardGroup" fill="#FFFFFF">
            <path d="M4.896,47.288 L18.464,47.288 L18.816,47.64 L18.432,49.976 L17.856,50.36 L0.768,50.36 L0,54.968 L20.448,54.968 C20.7680016,54.968 21.1093315,54.8773342 21.472,54.696 C21.8346685,54.5146658 22.1759984,54.2853347 22.496,54.008 C22.8160016,53.7306653 23.0933322,53.4266683 23.328,53.096 C23.5626678,52.7653317 23.7013331,52.4506682 23.744,52.152 L24.704,46.424 C24.8106672,45.7199965 24.8000006,45.1333357 24.672,44.664 C24.5439994,44.1946643 24.3360014,43.8106682 24.048,43.512 C23.7599986,43.2133318 23.4080021,43.0000006 22.992,42.872 C22.5759979,42.7439994 22.1440022,42.68 21.696,42.68 L8.128,42.68 L7.712,42.328 L8.128,39.864 L8.704,39.608 L25.824,39.608 L26.592,35 L6.144,35 C5.84533184,35 5.51466848,35.0906658 5.152,35.272 C4.78933152,35.4533342 4.4480016,35.6826653 4.128,35.96 C3.8079984,36.2373347 3.52533456,36.5413317 3.28,36.872 C3.03466544,37.2026683 2.89066688,37.5173318 2.848,37.816 L1.888,43.544 C1.7813328,44.2480035 1.79199936,44.8346643 1.92,45.304 C2.04800064,45.7733357 2.25599856,46.1573318 2.544,46.456 C2.83200144,46.7546682 3.18399792,46.9679994 3.6,47.096 C4.01600208,47.2240006 4.44799776,47.288 4.896,47.288 L4.896,47.288 Z M28.256,43.32 L45.376,43.32 L45.952,42.936 L46.464,39.992 L46.016,39.608 L28.896,39.608 L29.664,35 L50.112,35 C50.4320016,35 50.7413318,35.0906658 51.04,35.272 C51.3386682,35.4533342 51.5999989,35.6826653 51.824,35.96 C52.0480011,36.2373347 52.2186661,36.5413317 52.336,36.872 C52.4533339,37.2026683 52.4906669,37.5173318 52.448,37.816 L51.392,44.152 C51.2853328,44.8346701 51.0880014,45.4213309 50.8,45.912 C50.5119986,46.4026691 50.1706686,46.7973318 49.776,47.096 C49.3813314,47.3946682 48.954669,47.6133326 48.496,47.752 C48.037331,47.8906674 47.5840022,47.96 47.136,47.96 L33.152,47.96 L32,54.968 L26.336,54.968 L28.256,43.32 Z M64.192,46.264 L55.52,35 L62.752,35 L67.904,41.4 L75.104,35 L82.336,35 L69.856,46.264 L68.416,54.968 L62.752,54.968 L64.192,46.264 Z M83.904,43.992 L86.816,43.992 L90.304,39.48 L91.072,35 L85.408,35 L83.904,43.992 Z M95.712,47.288 L109.28,47.288 L109.632,47.64 L109.248,49.976 L108.672,50.36 L91.584,50.36 L90.816,54.968 L111.264,54.968 C111.584002,54.968 111.925332,54.8773342 112.288,54.696 C112.650668,54.5146658 112.991998,54.2853347 113.312,54.008 C113.632002,53.7306653 113.909332,53.4266683 114.144,53.096 C114.378668,52.7653317 114.517333,52.4506682 114.56,52.152 L115.52,46.424 C115.626667,45.7199965 115.616001,45.1333357 115.488,44.664 C115.359999,44.1946643 115.152001,43.8106682 114.864,43.512 C114.575999,43.2133318 114.224002,43.0000006 113.808,42.872 C113.391998,42.7439994 112.960002,42.68 112.512,42.68 L98.944,42.68 L98.528,42.328 L98.944,39.864 L99.52,39.608 L116.64,39.608 L117.408,35 L96.992,35 C96.6933318,35 96.3626685,35.0906658 96,35.272 C95.6373315,35.4533342 95.2906683,35.6879986 94.96,35.976 C94.6293317,36.2640014 94.3413346,36.5733317 94.096,36.904 C93.8506654,37.2346683 93.7066669,37.5493318 93.664,37.848 L92.704,43.544 C92.5973328,44.2480035 92.6079994,44.8346643 92.736,45.304 C92.8640006,45.7733357 93.0719986,46.1573318 93.36,46.456 C93.6480014,46.7546682 93.9999979,46.9679994 94.416,47.096 C94.8320021,47.2240006 95.2639978,47.288 95.712,47.288 L95.712,47.288 Z M133.472,54.968 L154.208,54.968 L154.976,50.36 L139.872,50.36 L142.432,35 L136.8,35 L133.472,54.968 Z M183.264,54.968 L177.248,54.968 L176.16,52.248 L164.512,52.248 L162.496,54.968 L156.448,54.968 L170.368,35 L176,35 L183.264,54.968 Z M174.656,47.64 L172.16,41.08 L167.552,47.64 L174.656,47.64 Z M188.832,35 L194.496,35 L191.168,54.968 L185.504,54.968 L188.832,35 Z M196.16,43.32 L212.288,43.32 C212.650668,43.2133328 212.842667,43.0853341 212.864,42.936 L213.376,39.992 C213.333333,39.9066662 213.274667,39.8320003 213.2,39.768 C213.125333,39.7039997 213.056,39.6506669 212.992,39.608 L196.8,39.608 L197.568,35 L217.28,35 C217.578668,35 217.877332,35.0906658 218.176,35.272 C218.474668,35.4533342 218.735999,35.6826653 218.96,35.96 C219.184001,36.2373347 219.359999,36.5413317 219.488,36.872 C219.616001,37.2026683 219.658667,37.5173318 219.616,37.816 L218.56,44.152 C218.453333,44.8346701 218.202669,45.4213309 217.808,45.912 C217.413331,46.4026691 216.938669,46.8026651 216.384,47.112 C215.829331,47.4213349 215.22667,47.6453326 214.576,47.784 C213.92533,47.9226674 213.280003,47.992 212.64,47.992 L218.816,54.968 L211.264,54.968 L204.576,47.992 L201.056,47.992 L199.904,54.968 L194.24,54.968 L196.16,43.32 Z" sketch:type="MSShapeGroup"></path>
        </g>
    </g>
</svg>